<svg width="16" height="10" viewBox="0 0 16 10" fill="none" xmlns="http://www.w3.org/2000/svg">
<path fill-rule="evenodd" clip-rule="evenodd" d="M15.6329 0.677106C15.7442 0.286843 15.6329 0 15.1035 0H13.3531C12.908 0 12.703 0.247763 12.5917 0.521053C12.5917 0.521053 11.7015 2.80434 10.4404 4.2875C10.0325 4.71684 9.84705 4.85329 9.6245 4.85329C9.51322 4.85329 9.35218 4.71684 9.35218 4.32658V0.677106C9.35218 0.208685 9.22303 0 8.85207 0H6.10142C5.82336 0 5.65607 0.217369 5.65607 0.423421C5.65607 0.8675 6.28647 0.969868 6.35148 2.21882V4.93158C6.35148 5.52632 6.24946 5.63421 6.02691 5.63421C5.43352 5.63421 3.99018 3.34053 3.13398 0.716184C2.96619 0.206053 2.7979 0 2.35055 0H0.60014C0.100023 0 0 0.247763 0 0.521053C0 1.00895 0.593513 3.42895 2.76314 6.62947C4.20973 8.815 6.24746 10 8.10189 10C9.21465 10 9.35218 9.73684 9.35218 9.28355V7.63158C9.35218 7.10526 9.45758 7.00026 9.80979 7.00026C10.0696 7.00026 10.5146 7.13684 11.5532 8.19066C12.74 9.43947 12.9355 10 13.6032 10H15.3536C15.8537 10 16.1038 9.73684 15.9595 9.2175C15.8017 8.69987 15.2351 7.94908 14.4831 7.05882C14.0752 6.55132 13.4631 6.00487 13.2779 5.73171C13.0182 5.38039 13.0923 5.22434 13.2779 4.91224C13.2779 4.91224 15.4103 1.75066 15.6329 0.677237V0.677106Z" fill="#222222"/>
</svg>
