<svg width="25" height="24" viewBox="0 0 25 24" fill="none" xmlns="http://www.w3.org/2000/svg">
<path d="M17.3234 2.25047C17.8404 2.4866 18.3083 2.81214 18.7143 3.21809C20.1653 4.66906 20.1653 7.02998 18.7143 8.48095C18.1498 9.04545 17.3209 9.28446 16.5513 9.10492C16.4426 9.07953 16.3087 9.03891 16.1671 8.97397C16.5173 8.9017 16.851 8.73002 17.1222 8.45883C17.9986 7.58232 17.9986 6.15616 17.1222 5.27965C16.1002 4.25773 14.2119 4.34118 12.9987 5.46212C12.994 5.46647 12.9894 5.47096 12.9848 5.4755C12.0696 6.39078 11.5371 7.69004 11.524 9.04023C11.511 10.3992 12.0267 11.7019 12.9392 12.6144C14.0753 13.7505 15.5856 14.3761 17.1922 14.3761C18.7988 14.3761 20.3093 13.7505 21.4454 12.6144C22.2789 11.7809 23.3833 11.264 24.5552 11.159C24.8238 11.1349 25.0221 10.8976 24.9979 10.6291C24.9739 10.3605 24.7372 10.1622 24.468 10.1864C23.0686 10.3118 21.7498 10.9288 20.7548 11.9239C19.8032 12.8755 18.538 13.3996 17.1922 13.3996C15.8464 13.3996 14.5812 12.8755 13.6296 11.9239C12.9014 11.1957 12.4899 10.1481 12.5005 9.04975C12.5111 7.95654 12.9366 6.9087 13.6684 6.17301C14.4937 5.41661 15.7827 5.32135 16.4316 5.97022C16.9273 6.46597 16.9273 7.27261 16.4316 7.76836C16.073 8.12695 15.4896 8.12685 15.1312 7.76836C14.9707 7.60786 14.7208 7.57915 14.5281 7.69897C14.3354 7.8188 14.2506 8.05556 14.3235 8.2705C14.6319 9.17978 15.363 9.83055 16.3294 10.056C17.4252 10.3117 18.6035 9.97279 19.4048 9.17157C21.2365 7.33984 21.2365 4.35934 19.4048 2.52762C18.9161 2.03905 18.3524 1.64691 17.7292 1.36224C17.4839 1.25023 17.1942 1.35819 17.0822 1.6035C16.9702 1.84871 17.0782 2.13841 17.3234 2.25047Z" fill="white"/>
<path d="M0.393204 13.8976C0.128704 13.9501 -0.0431216 14.2072 0.00946595 14.4717C0.0556571 14.704 0.259611 14.8649 0.487881 14.8649C0.519375 14.8649 0.551455 14.8618 0.583584 14.8554C3.93459 14.1896 6.6833 11.7599 7.75708 8.51447L8.27299 6.95506C9.0537 4.59526 10.9471 2.7816 13.3379 2.10347C13.5973 2.02989 13.748 1.75992 13.6744 1.50045C13.6008 1.24098 13.3306 1.09049 13.0714 1.16393C10.4745 1.90055 8.39736 3.82275 7.45581 6.33861C5.47867 7.90232 3.01003 8.76252 0.488418 8.76252C0.218791 8.76252 0.00013983 8.98112 0.00013983 9.2508C0.00013983 9.52047 0.218742 9.73907 0.488418 9.73907C2.7676 9.73907 5.007 9.09269 6.93247 7.89778L6.82993 8.20774C5.86641 11.1199 3.40002 13.3002 0.393204 13.8976Z" fill="white"/>
<path d="M9.3262 12.488C9.3262 12.2184 9.10755 11.9998 8.83792 11.9998C8.56824 11.9998 8.34964 12.2184 8.34964 12.488C8.34964 14.8933 10.3064 16.85 12.7116 16.85C12.9812 16.85 13.1999 16.6314 13.1999 16.3617C13.1999 16.092 12.9812 15.8734 12.7116 15.8734C10.8449 15.8735 9.3262 14.3548 9.3262 12.488Z" fill="white"/>
<path d="M24.1956 13.6573C23.7694 13.9533 23.3657 14.2909 22.9957 14.6609C21.5316 16.1251 19.585 16.9314 17.5143 16.9314C17.2446 16.9314 17.026 17.15 17.026 17.4197C17.026 17.6893 17.2446 17.9079 17.5143 17.9079H17.5144C19.8457 17.9079 22.0378 16.9999 23.6863 15.3514C24.0152 15.0224 24.3741 14.7223 24.7527 14.4593C24.9742 14.3055 25.029 14.0013 24.8752 13.7798C24.7214 13.5583 24.4172 13.5034 24.1956 13.6573Z" fill="white"/>
<path d="M24.857 21.0814C24.6664 20.8907 24.3573 20.8907 24.1664 21.0814C22.701 22.5468 20.3166 22.5469 18.8512 21.0814C17.9568 20.187 16.7677 19.6945 15.503 19.6945C14.2383 19.6945 13.0491 20.187 12.1548 21.0814C10.6894 22.5468 8.30499 22.5469 6.83957 21.0814C5.94523 20.187 4.75613 19.6945 3.49139 19.6945C2.22665 19.6945 1.03755 20.187 0.143218 21.0814C-0.0474546 21.272 -0.0474546 21.5812 0.143218 21.7719C0.33394 21.9626 0.64302 21.9626 0.83379 21.7719C2.29926 20.3064 4.68372 20.3065 6.14904 21.7719C7.99527 23.6181 10.9992 23.6181 12.8454 21.7719C14.3109 20.3064 16.6954 20.3065 18.1607 21.7719C19.0838 22.695 20.2963 23.1566 21.5089 23.1566C22.7214 23.1566 23.934 22.695 24.857 21.7719C25.0477 21.5812 25.0477 21.272 24.857 21.0814Z" fill="white"/>
<path d="M15.3809 1.81995C15.5093 1.81995 15.6353 1.7677 15.726 1.67688C15.8168 1.58606 15.8691 1.46008 15.8691 1.33167C15.8691 1.20325 15.8169 1.07727 15.726 0.98645C15.6353 0.89563 15.5093 0.843384 15.3809 0.843384C15.2519 0.843384 15.1265 0.89563 15.0356 0.98645C14.9443 1.07727 14.8926 1.20325 14.8926 1.33167C14.8926 1.46008 14.9443 1.58606 15.0356 1.67688C15.1265 1.76775 15.252 1.81995 15.3809 1.81995Z" fill="white"/>
</svg>
