<svg width="22" height="26" viewBox="0 0 22 26" fill="none" xmlns="http://www.w3.org/2000/svg">
<path d="M21.0262 14.2135H19.6238C19.4372 12.5036 18.7542 10.8713 17.6535 9.53821C17.5247 9.38219 17.2939 9.36006 17.1379 9.489C16.9819 9.61774 16.96 9.84853 17.0887 10.0046C18.0811 11.2064 18.7029 12.6739 18.8862 14.2135H2.74944C3.22399 10.1848 6.66142 7.04874 10.8183 7.04874C12.693 7.04874 14.4539 7.66862 15.9109 8.84126C16.0685 8.9681 16.2991 8.94312 16.4257 8.78557C16.5525 8.62802 16.5276 8.39742 16.3702 8.27058C15.0541 7.21143 13.4514 6.55244 11.7775 6.36896V5.98291C12.2591 5.7443 12.5723 5.32774 12.5723 4.84422C12.5723 4.08548 11.8019 3.49115 10.8183 3.49115C9.83467 3.49115 9.06429 4.08548 9.06429 4.84422C9.06429 5.32774 9.37748 5.7443 9.85909 5.98291V6.36839C5.73845 6.81413 2.45686 10.0952 2.01263 14.2135H0.610352C0.273705 14.2135 0 14.4874 0 14.8239V15.616C0 15.9526 0.273705 16.2263 0.610352 16.2263H1.14765C1.16386 16.2576 1.18198 16.2887 1.20316 16.3194L1.88789 17.3126C2.10819 17.632 2.56672 17.8729 2.95486 17.8729H4.702L5.47009 19.3483C5.6881 19.7667 6.18172 20.2754 6.5937 20.5058L9.23252 21.9818H9.1629C8.82626 21.9818 8.55255 22.2555 8.55255 22.5921V24.6396C8.55255 24.9763 8.82626 25.25 9.1629 25.25H15.9334C16.2701 25.25 16.5438 24.9763 16.5438 24.6396V22.5921C16.5438 22.2555 16.2701 21.9818 15.9334 21.9818H15.53V21.8442C15.53 21.4879 15.6487 20.9104 15.789 20.5831L16.881 18.037C16.9043 17.9822 16.9222 17.9275 16.9357 17.8727H18.6819C19.0699 17.8727 19.5286 17.632 19.7489 17.3126L20.4334 16.3194C20.4546 16.2887 20.4727 16.2576 20.4889 16.2263H21.0262C21.3629 16.2263 21.6366 15.9526 21.6366 15.616V14.8239C21.6366 14.4874 21.3629 14.2135 21.0262 14.2135ZM11.0451 6.31956C10.9695 6.31765 10.894 6.31631 10.8183 6.31631C10.7426 6.31631 10.6668 6.31746 10.5915 6.31937V6.18623C10.6657 6.19329 10.7412 6.1973 10.8183 6.1973C10.8953 6.1973 10.9709 6.19329 11.0451 6.18623V6.31956ZM9.79671 4.84422C9.79671 4.47839 10.3352 4.22357 10.8183 4.22357C11.3014 4.22357 11.8399 4.47839 11.8399 4.84422C11.8399 5.21005 11.3014 5.46487 10.8183 5.46487C10.3352 5.46487 9.79671 5.21005 9.79671 4.84422ZM15.8113 22.7142V24.5176H14.4072V22.7142H15.8113ZM15.1159 20.2943C14.9374 20.7105 14.7976 21.3914 14.7976 21.8442V21.9818H13.162C12.9599 21.9818 12.7958 22.1456 12.7958 22.348C12.7958 22.5501 12.9599 22.7142 13.162 22.7142H13.6747V24.5176H9.28497V22.7142H11.4531C11.6552 22.7142 11.8193 22.5501 11.8193 22.348C11.8193 22.1456 11.6552 21.9818 11.4531 21.9818H10.3243C10.1801 21.7584 9.99146 21.5669 9.78146 21.4494L6.95133 19.8665C6.66161 19.7046 6.27308 19.3042 6.11992 19.0099L5.52788 17.8727H6.72474L6.92081 18.2603C7.14893 18.7116 7.68471 19.1661 8.16689 19.3178L10.2039 19.9582C10.6258 20.091 11.3028 20.1949 11.7449 20.1949H12.6118C13.1384 20.1949 13.7625 19.8692 14.0636 19.4373L15.0454 18.0297C15.0831 17.9756 15.1346 17.9225 15.1945 17.8727H16.1545L15.1159 20.2943ZM7.54547 17.8727H14.2616L13.4628 19.0185C13.3007 19.2508 12.8952 19.4625 12.6118 19.4625H11.7447C11.3783 19.4625 10.7733 19.3696 10.4235 19.2596L8.38661 18.6191C8.09803 18.5283 7.71084 18.1997 7.57427 17.9298L7.54547 17.8727ZM19.1458 16.8968C19.0609 17.0198 18.8313 17.1403 18.6819 17.1403H2.95486C2.80533 17.1403 2.57568 17.0198 2.49081 16.8968L2.02866 16.2263H19.6079L19.1458 16.8968ZM20.9042 15.4939H0.732422V14.9459H20.9042V15.4939Z" fill="white"/>
<path d="M4.53931 6.05959H5.87656C6.07874 6.05959 6.24277 5.89555 6.24277 5.69337C6.24277 5.491 6.07874 5.32716 5.87656 5.32716H4.53931C4.0806 5.32716 3.70752 4.95351 3.70752 4.49461C3.70752 4.03551 4.0806 3.66205 4.53931 3.66205H5.43119C5.63337 3.66205 5.7974 3.49802 5.7974 3.29584C5.7974 3.09347 5.63337 2.92963 5.43119 2.92963H4.53931C3.67681 2.92963 2.9751 3.63172 2.9751 4.49461C2.9751 5.35749 3.67681 6.05959 4.53931 6.05959Z" fill="white"/>
<path d="M6.68677 0.982422H7.86818C8.40434 0.982422 8.84074 1.4192 8.84074 1.95593C8.84074 2.49285 8.40434 2.92963 7.86818 2.92963H7.15617C6.95399 2.92963 6.78996 3.09348 6.78996 3.29585C6.78996 3.49802 6.95399 3.66206 7.15617 3.66206H7.86818C8.80831 3.66206 9.57316 2.89664 9.57316 1.95593C9.57316 1.01542 8.80831 0.25 7.86818 0.25H6.68677C6.4844 0.25 6.32056 0.413841 6.32056 0.616211C6.32056 0.818581 6.4844 0.982422 6.68677 0.982422Z" fill="white"/>
<path d="M13.8456 6.08496C14.0478 6.08496 14.2119 5.92112 14.2119 5.71875V4.99262C14.2119 4.6926 14.4556 4.44865 14.7551 4.44865H16.909C17.7095 4.44865 18.3605 3.7971 18.3605 2.9962C18.3605 2.1955 17.7094 1.54395 16.909 1.54395H16.1602C15.9578 1.54395 15.794 1.70779 15.794 1.91016C15.794 2.11253 15.9578 2.27637 16.1602 2.27637H16.909C17.3056 2.27637 17.6281 2.59928 17.6281 2.9962C17.6281 3.39331 17.3056 3.71622 16.909 3.71622H14.7551C14.0516 3.71622 13.4794 4.28881 13.4794 4.99262V5.71875C13.4794 5.92112 13.6435 6.08496 13.8456 6.08496Z" fill="white"/>
<path d="M10.5742 23.126H9.93939C9.73721 23.126 9.57318 23.2898 9.57318 23.4922C9.57318 23.6946 9.73721 23.8584 9.93939 23.8584H10.5742C10.7763 23.8584 10.9404 23.6946 10.9404 23.4922C10.9404 23.2898 10.7763 23.126 10.5742 23.126Z" fill="white"/>
</svg>
