<svg width="21" height="26" viewBox="0 0 21 26" fill="none" xmlns="http://www.w3.org/2000/svg">
<path d="M11.9709 12.8976C11.7687 12.8976 11.6047 13.0615 11.6047 13.2638C11.6047 13.8729 11.1091 14.3685 10.5 14.3685C9.89088 14.3685 9.39532 13.8729 9.39532 13.2638C9.39532 13.0615 9.23136 12.8976 9.02911 12.8976C8.82687 12.8976 8.6629 13.0615 8.6629 13.2638C8.6629 14.2768 9.48702 15.1009 10.5 15.1009C11.513 15.1009 12.3371 14.2768 12.3371 13.2638C12.3371 13.0615 12.1732 12.8976 11.9709 12.8976Z" fill="white"/>
<path d="M8.89157 11.5104C8.89157 10.5333 8.09655 9.73828 7.1194 9.73828C6.14225 9.73828 5.34723 10.5333 5.34723 11.5104C5.34723 11.7127 5.51119 11.8767 5.71344 11.8767C5.91569 11.8767 6.07965 11.7127 6.07965 11.5104C6.07965 10.9371 6.54606 10.4707 7.1194 10.4707C7.69274 10.4707 8.15914 10.9371 8.15914 11.5104C8.15914 11.7127 8.32311 11.8767 8.52535 11.8767C8.7276 11.8767 8.89157 11.7127 8.89157 11.5104Z" fill="white"/>
<path d="M13.8807 9.73828C12.9035 9.73828 12.1085 10.5333 12.1085 11.5104C12.1085 11.7127 12.2725 11.8767 12.4747 11.8767C12.677 11.8767 12.8409 11.7127 12.8409 11.5104C12.8409 10.9371 13.3074 10.4707 13.8807 10.4707C14.454 10.4707 14.9204 10.9371 14.9204 11.5104C14.9204 11.7127 15.0844 11.8767 15.2866 11.8767C15.4889 11.8767 15.6529 11.7127 15.6529 11.5104C15.6529 10.5333 14.8579 9.73828 13.8807 9.73828Z" fill="white"/>
<path d="M17.6299 7.9437C17.2579 6.10625 16.1838 4.47656 14.5968 3.4019C14.436 2.49663 13.8164 1.79873 13.0311 1.32842C12.8575 1.22446 12.6326 1.28091 12.5288 1.45449C12.4249 1.62798 12.4813 1.85288 12.6548 1.95684C12.938 2.12642 13.0808 2.27705 13.1336 2.31299C13.5462 2.61777 13.8816 3.22676 13.8979 3.72905C13.9123 4.15518 13.793 4.6312 13.4616 4.87085C13.4586 4.8731 13.4555 4.87534 13.4526 4.87764C13.1743 5.09233 12.9724 5.38408 12.9724 5.73271C12.9724 5.73506 12.9726 5.7374 12.9726 5.7397C12.975 6.03135 13.1001 6.19648 13.2409 6.42822C12.6368 6.17622 12.1039 5.89131 11.6493 5.57681C11.1054 5.20059 10.4604 5.63096 10.2629 6.14014C10.0956 6.5627 10.2738 6.84375 10.468 7.16348C9.59772 6.79985 8.87072 6.36699 8.3339 5.88955C7.65094 5.28218 7.28995 4.61299 7.28995 3.95444C7.28995 3.53145 7.28907 3.58486 7.29249 3.5125C7.34161 2.47422 8.51495 1.25474 11.1885 1.50903C11.3901 1.52827 11.5686 1.38047 11.5877 1.17915C11.6068 0.977832 11.4591 0.799072 11.2578 0.779932C10.9796 0.753418 10.7278 0.75 10.5396 0.75C10.4206 0.75 10.3057 0.751563 10.2161 0.751563C8.33097 0.751563 6.77472 1.86138 6.57877 3.28154C5.59567 3.90537 4.77101 4.76211 4.18683 5.77002C3.79518 6.44575 3.51783 7.1812 3.36256 7.94429C1.96261 8.05151 0.856018 9.22407 0.856018 10.6511C0.856018 12.0778 1.96217 13.2501 3.36178 13.3578C3.69313 14.9844 4.57267 16.4139 5.79806 17.4451C4.31456 18.5899 3.44288 20.3465 3.44288 22.241V22.9569C3.44288 23.1591 3.60685 23.3231 3.80909 23.3231C4.01134 23.3231 4.17531 23.1591 4.17531 22.9569V22.241C4.17531 20.909 4.66569 19.6547 5.52907 18.6907V19.2218C5.52907 21.9682 7.76339 24.2025 10.5098 24.2025C13.2562 24.2025 15.4905 21.9682 15.4905 19.2218V18.6913C15.8802 19.127 16.1973 19.6254 16.428 20.1727C16.4282 20.173 16.4283 20.1733 16.4285 20.1737C16.7044 20.8285 16.8443 21.524 16.8443 22.241V25.0176H4.17526V24.6658C4.17526 24.4636 4.01129 24.2996 3.80905 24.2996C3.6068 24.2996 3.44283 24.4636 3.44283 24.6658V25.3838C3.44283 25.586 3.6068 25.75 3.80905 25.75H17.2105C17.4127 25.75 17.5767 25.586 17.5767 25.3838V22.241C17.5767 21.4257 17.4174 20.6345 17.1034 19.8892C17.1032 19.8888 17.103 19.8884 17.1029 19.888C16.696 18.9229 16.0539 18.0905 15.2314 17.453C15.2242 17.4474 15.2171 17.4417 15.2098 17.4362C15.2088 17.4354 15.2079 17.4346 15.2069 17.4339C16.4253 16.4038 17.2996 14.979 17.6299 13.3583C19.0335 13.2548 20.1441 12.0806 20.1441 10.651C20.1441 9.22148 19.0335 8.04727 17.6299 7.9437ZM3.24991 12.6081C2.30885 12.454 1.58844 11.635 1.58844 10.651C1.58844 9.66694 2.30885 8.84805 3.24991 8.6939C3.2089 9.12119 3.1899 11.9824 3.24991 12.6081ZM14.7581 19.2218C14.7581 21.5643 12.8523 23.4701 10.5097 23.4701C8.1672 23.4701 6.26144 21.5643 6.26144 19.2218V18.0128C6.30934 17.976 6.35778 17.9404 6.40651 17.9054C6.61022 18.0432 6.8215 18.1705 7.03922 18.2874V19.2218C7.03922 21.1355 8.59611 22.6923 10.5098 22.6923C12.4235 22.6923 13.9803 21.1355 13.9803 19.2218V18.2727C14.1934 18.1572 14.4 18.0312 14.5996 17.8956C14.6529 17.9335 14.7059 17.9725 14.7581 18.0126L14.7581 19.2218ZM7.77164 19.2218V18.629C8.71588 19.0063 9.60035 19.1419 10.5457 19.1419C11.5006 19.1419 12.4127 18.9554 13.2479 18.6176V19.2218C13.2479 20.7315 12.0195 21.9599 10.5097 21.9599C8.99992 21.9599 7.77164 20.7315 7.77164 19.2218ZM16.9633 12.9275C16.4593 16.1262 13.6795 18.4095 10.5 18.4095C8.11378 18.4095 6.71432 17.1619 6.54323 17.1033C5.22531 16.11 4.2962 14.6272 4.02838 12.9275C3.92545 12.2714 3.94889 11.9796 3.94889 9.38965C3.94889 7.39888 4.89108 5.43086 6.56725 4.17788C6.7464 6.23398 9.24879 7.58301 11.2125 8.21738C11.5347 8.32148 11.8129 7.96655 11.638 7.67876L10.9677 6.57549C10.9562 6.55654 10.9477 6.53862 10.9419 6.52144C10.9122 6.44995 10.9641 6.36802 10.9665 6.36377C11.0014 6.30518 11.0622 6.24233 11.1447 6.1813C11.1817 6.16079 11.2161 6.16567 11.2326 6.1791C11.3985 6.29395 11.5742 6.40474 11.7581 6.51187C12.0374 6.67451 12.3365 6.82832 12.6556 6.97236C13.0672 7.1582 13.5109 7.32817 13.9848 7.4813C14.1303 7.52832 14.2899 7.47988 14.3847 7.35986C14.4796 7.23984 14.4898 7.07344 14.4104 6.94272L13.7401 5.8395C13.6122 5.6291 13.88 5.48994 14.0407 5.34077C14.3368 5.06562 14.5078 4.69668 14.5848 4.2999C16.1422 5.53413 17.0427 7.39932 17.0427 9.38965C17.0428 12.105 17.0639 12.2866 16.9633 12.9275ZM17.7417 12.6095C17.8021 11.9825 17.7834 9.12622 17.742 8.69263C18.6871 8.84336 19.4116 9.66421 19.4116 10.651C19.4116 11.638 18.6869 12.4588 17.7417 12.6095Z" fill="white"/>
</svg>
