<svg width="138" height="57" viewBox="0 0 138 57" fill="none" xmlns="http://www.w3.org/2000/svg">
<path d="M28.3199 0C28.6622 0 29.0284 0.00757552 29.4178 0.0225661C29.8022 0.037367 30.1673 0.058202 30.5133 0.0849486L31.1565 0.134702L27.7169 7.54786L27.4454 7.55912C21.8859 7.78993 16.8881 10.2145 13.2846 13.9956C9.69802 17.7589 7.49398 22.8681 7.49398 28.4968C7.49398 32.0567 8.37445 35.4068 9.92777 38.3387C11.4588 41.2287 13.6433 43.7152 16.2826 45.599L22.4882 32.2356H15.2693L18.7411 24.7578H25.9609L36.8525 1.31545L37.2274 1.44038C42.9385 3.3434 47.8447 7.027 51.2963 11.8381C54.6585 16.5244 56.6397 22.2784 56.6397 28.4968C56.6397 36.3659 53.4699 43.4899 48.345 48.647C43.2201 53.8039 36.1401 56.9935 28.3199 56.9935C27.978 56.9935 27.6121 56.9859 27.2232 56.9709C26.8383 56.956 26.4727 56.9352 26.1264 56.9085L25.4832 56.8589L28.9221 49.4456L29.1936 49.4343C34.1777 49.2277 38.7096 47.2585 42.1898 44.1299C45.5811 41.0813 47.9738 36.9305 48.814 32.2356H30.6832L19.7976 55.6813L19.4226 55.5564C13.7088 53.6551 8.80012 49.9717 5.34648 45.1597C1.98242 40.4727 -4.8169e-07 34.7169 0 28.4968C6.42254e-07 20.6277 3.16983 13.5034 8.29473 8.34654C13.4196 3.18962 20.4996 -6.46265e-07 28.3199 0ZM48.8145 24.7578C48.3278 22.0374 47.3209 19.5016 45.9017 17.2585C44.4483 14.9617 42.5623 12.9688 40.3589 11.3957L34.155 24.7578H48.8145Z" fill="url(#paint0_linear_29_5)"/>
<path fill-rule="evenodd" clip-rule="evenodd" d="M76.5254 16.1499H72.9832L72.1615 18.7845H69L73.3087 6H76.2253L80.519 18.7845H77.3557L76.5254 16.1499ZM86.1293 16.3374H91.5148V18.7845H82.4602V17.1472L87.6764 8.4584H82.4687V6H91.3745V7.58839L86.1293 16.3374ZM101.167 16.1499H97.6248L96.803 18.7845H93.6416L97.9503 6H100.867L105.161 18.7845H101.997L101.167 16.1499ZM110.596 13.902V18.7845H107.58V6H112.09C113.305 6 114.568 6.2342 115.535 7.01666C116.438 7.74655 116.821 8.74358 116.821 9.89223C116.821 10.5441 116.654 11.1557 116.267 11.6839C115.998 12.0519 115.656 12.3454 115.274 12.5796C115.716 12.7944 116.104 13.1008 116.378 13.5309C116.759 14.1297 116.895 14.8291 116.895 15.5306V16.427C116.895 16.7645 116.945 17.1018 117.027 17.429C117.088 17.6751 117.196 17.9377 117.4 18.1002L117.508 18.1855V18.7845H114.598L114.52 18.7213C114.194 18.4583 114.048 18.0551 113.985 17.6532C113.921 17.2433 113.887 16.8277 113.887 16.4125V15.5477C113.887 15.1014 113.791 14.6515 113.468 14.3244C113.147 13.9988 112.703 13.902 112.259 13.902H110.596ZM123.636 18.7845H120.616V6H123.636V18.7845ZM134.006 16.1499H130.464L129.642 18.7845H126.481L130.79 6H133.706L138 18.7845H134.837L134.006 16.1499ZM88.0451 27.33H85.1381V30.8759H82.8591V21.7711H85.1381V25.4409H88.0451V21.7711H90.326V30.8759H88.0451V27.33ZM100.146 27.092C100.146 28.1594 99.8222 29.1174 99.0758 29.889C98.3239 30.6658 97.3658 31 96.2925 31C95.2205 31 94.266 30.6656 93.5185 29.8859C92.7776 29.1133 92.455 28.1565 92.455 27.092V25.555C92.455 24.4921 92.779 23.5389 93.516 22.7656C94.2602 21.985 95.2099 21.649 96.2805 21.649C97.357 21.649 98.3158 21.985 99.0697 22.7641C99.8157 23.5348 100.146 24.4874 100.146 25.555V27.092ZM106.197 23.6602V30.8759H103.918V23.6602H101.515V21.7711H108.636V23.6602H106.197ZM112.63 27.124V28.9946H116.393V30.8759H110.351V21.7711H116.381V23.6602H112.63V25.2369H115.795V27.124H112.63ZM120.651 28.9946H124.472V30.8759H118.372V21.7711H120.651V28.9946ZM73.7662 13.6599H75.7514L74.763 10.5053L73.7662 13.6599ZM98.4078 13.6599H100.393L99.4044 10.5053L98.4078 13.6599ZM110.596 11.4463H112.047C112.495 11.4463 113.046 11.3825 113.399 11.0774C113.713 10.806 113.801 10.4008 113.801 10.001C113.801 9.57185 113.692 9.17543 113.38 8.86971C113.043 8.54007 112.543 8.4584 112.09 8.4584H110.596V11.4463ZM131.247 13.6599H133.232L132.244 10.5053L131.247 13.6599ZM97.8711 25.5451C97.8711 25.0203 97.7608 24.5038 97.4328 24.0831C97.1396 23.7067 96.7509 23.5542 96.2805 23.5542C95.8181 23.5542 95.4382 23.7058 95.1546 24.0799C94.8341 24.5027 94.7301 25.0239 94.7301 25.5451V27.092C94.7301 27.6172 94.8343 28.1465 95.1582 28.5727C95.4432 28.9471 95.8271 29.0989 96.2925 29.0989C96.7619 29.0989 97.1486 28.947 97.4378 28.5714C97.7651 28.1463 97.8711 27.6184 97.8711 27.092V25.5451Z" fill="white"/>
<path d="M102.999 37L105.163 41.2794L110 41.9663L106.499 45.2956L107.327 50L102.999 47.779L98.6728 50L99.4993 45.2956L96 41.9663L100.836 41.2794L102.999 37Z" stroke="#A2874D" stroke-width="3.51584" stroke-miterlimit="22.9256"/>
<path d="M102.999 37L105.163 41.2794L110 41.9663L106.499 45.2956L107.327 50L102.999 47.779L98.6728 50L99.4993 45.2956L96 41.9663L100.836 41.2794L102.999 37Z" fill="url(#paint1_linear_29_5)"/>
<path d="M123.499 37L125.818 41.2794L131 41.9663L127.249 45.2956L128.136 50L123.499 47.779L118.864 50L119.749 45.2956L116 41.9663L121.182 41.2794L123.499 37Z" stroke="#A2874D" stroke-width="3.51584" stroke-miterlimit="22.9256"/>
<path d="M123.499 37L125.817 41.2794L131 41.9663L127.249 45.2956L128.136 50L123.499 47.779L118.864 50L119.749 45.2956L116 41.9663L121.182 41.2794L123.499 37Z" fill="url(#paint2_linear_29_5)"/>
<path d="M82.4994 37L84.8175 41.2794L90 41.9663L86.2493 45.2956L87.1356 50L82.4994 47.779L77.8638 50L78.7493 45.2956L75 41.9663L80.1819 41.2794L82.4994 37Z" stroke="#A2874D" stroke-width="3.51584" stroke-miterlimit="22.9256"/>
<path d="M82.4994 37L84.8175 41.2794L90 41.9663L86.2493 45.2956L87.1356 50L82.4994 47.779L77.8638 50L78.7493 45.2956L75 41.9663L80.1819 41.2794L82.4994 37Z" fill="url(#paint3_linear_29_5)"/>
<defs>
<linearGradient id="paint0_linear_29_5" x1="1.44208" y1="3.92831" x2="49.9232" y2="53.8626" gradientUnits="userSpaceOnUse">
<stop stop-color="#D7B56E"/>
<stop offset="0.21" stop-color="#FFE8B2"/>
<stop offset="0.5" stop-color="#D7B56E"/>
<stop offset="0.77" stop-color="#FFE8B1"/>
<stop offset="1" stop-color="#D7B56E"/>
</linearGradient>
<linearGradient id="paint1_linear_29_5" x1="96.6644" y1="37.6197" x2="107.661" y2="49.8939" gradientUnits="userSpaceOnUse">
<stop stop-color="#D7B56E"/>
<stop offset="0.21" stop-color="#FFE8B2"/>
<stop offset="0.5" stop-color="#D7B56E"/>
<stop offset="0.77" stop-color="#FFE8B1"/>
<stop offset="1" stop-color="#D7B56E"/>
</linearGradient>
<linearGradient id="paint2_linear_29_5" x1="116.712" y1="37.6197" x2="127.601" y2="50.6411" gradientUnits="userSpaceOnUse">
<stop stop-color="#D7B56E"/>
<stop offset="0.21" stop-color="#FFE8B2"/>
<stop offset="0.5" stop-color="#D7B56E"/>
<stop offset="0.77" stop-color="#FFE8B1"/>
<stop offset="1" stop-color="#D7B56E"/>
</linearGradient>
<linearGradient id="paint3_linear_29_5" x1="75.712" y1="37.6197" x2="86.6007" y2="50.6412" gradientUnits="userSpaceOnUse">
<stop stop-color="#D7B56E"/>
<stop offset="0.21" stop-color="#FFE8B2"/>
<stop offset="0.5" stop-color="#D7B56E"/>
<stop offset="0.77" stop-color="#FFE8B1"/>
<stop offset="1" stop-color="#D7B56E"/>
</linearGradient>
</defs>
</svg>
