<svg width="57" height="100" viewBox="0 0 57 100" fill="none" xmlns="http://www.w3.org/2000/svg">
<path fill-rule="evenodd" clip-rule="evenodd" d="M9.17006 68.3874H6.64887L6.064 70.274H3.81375L6.88054 61.1191H8.95642L12.0126 70.274H9.76103L9.17006 68.3874ZM16.0057 68.5216H19.8389V70.274H13.3942V69.1015L17.1069 62.8796H13.4003V61.1191H19.739V62.2566L16.0057 68.5216ZM26.7089 68.3874H24.1878L23.6028 70.274H21.3527L24.4194 61.1191H26.4954L29.5514 70.274H27.3L26.7089 68.3874ZM33.4203 66.7777V70.274H31.2734V61.1191H34.4836C35.3482 61.1191 36.2473 61.2868 36.9358 61.8472C37.5779 62.3698 37.8506 63.0838 37.8506 63.9063C37.8506 64.3731 37.7322 64.8111 37.4569 65.1893C37.265 65.4528 37.0217 65.663 36.7494 65.8307C37.0646 65.9845 37.3406 66.204 37.5355 66.5119C37.8069 66.9407 37.9036 67.4415 37.9036 67.9439V68.5858C37.9036 68.8275 37.9392 69.069 37.9973 69.3033C38.0412 69.4795 38.1179 69.6676 38.2632 69.7839L38.3396 69.845V70.274H36.2685L36.2128 70.2287C35.9811 70.0403 35.8769 69.7516 35.8325 69.4639C35.7868 69.1703 35.7628 68.8727 35.7628 68.5754V67.9561C35.7628 67.6366 35.6942 67.3144 35.4644 67.0801C35.2356 66.847 34.9198 66.7777 34.6037 66.7777H33.4203ZM42.7012 70.274H40.5522V61.1191H42.7012V70.274ZM50.0828 68.3874H47.5616L46.9767 70.274H44.7265L47.7933 61.1191H49.8691L52.9252 70.274H50.6738L50.0828 68.3874ZM17.3693 76.3933H15.3002V78.9325H13.6781V72.4126H15.3002V75.0405H17.3693V72.4126H18.9927V78.9325H17.3693V76.3933ZM25.9822 76.2228C25.9822 76.9872 25.7518 77.6732 25.2205 78.2258C24.6853 78.782 24.0034 79.0213 23.2395 79.0213C22.4765 79.0213 21.7971 78.7819 21.265 78.2235C20.7377 77.6703 20.5081 76.9851 20.5081 76.2228V75.1222C20.5081 74.3611 20.7387 73.6785 21.2633 73.1248C21.7929 72.5658 22.4689 72.3252 23.231 72.3252C23.9972 72.3252 24.6796 72.5658 25.2162 73.1237C25.7471 73.6756 25.9822 74.3577 25.9822 75.1222V76.2228ZM30.289 73.7654V78.9325H28.6668V73.7654H26.9567V72.4126H32.0249V73.7654H30.289ZM34.8676 76.2458V77.5853H37.5463V78.9325H33.2455V72.4126H37.5376V73.7654H34.8676V74.8944H37.1205V76.2458H34.8676ZM40.5769 77.5853H43.2969V78.9325H38.9549V72.4126H40.5769V77.5853ZM7.20613 66.6043H8.61916L7.91563 64.3453L7.20613 66.6043ZM24.7451 66.6043H26.158L25.4544 64.3453L24.7451 66.6043ZM33.4203 65.0192H34.4529C34.7716 65.0192 35.1637 64.9735 35.415 64.755C35.6386 64.5607 35.7016 64.2705 35.7016 63.9842C35.7016 63.6769 35.6239 63.393 35.4017 63.1741C35.1619 62.9381 34.8058 62.8796 34.4836 62.8796H33.4203V65.0192ZM48.1189 66.6043H49.5319L48.8283 64.3453L48.1189 66.6043ZM24.3631 75.1151C24.3631 74.7393 24.2846 74.3695 24.0511 74.0682C23.8424 73.7987 23.5657 73.6895 23.231 73.6895C22.9018 73.6895 22.6314 73.7981 22.4296 74.0659C22.2014 74.3687 22.1274 74.7419 22.1274 75.1151V76.2228C22.1274 76.599 22.2016 76.978 22.4322 77.2832C22.6349 77.5512 22.9082 77.66 23.2395 77.66C23.5736 77.66 23.8488 77.5512 24.0546 77.2822C24.2876 76.9778 24.3631 76.5998 24.3631 76.2228V75.1151Z" fill="white"/>
<path d="M28.1907 83.4644L29.7614 86.6664L33.273 87.1804L30.7315 89.6716L31.3322 93.1916L28.1907 91.5297L25.0496 93.1916L25.6497 89.6716L23.1092 87.1804L26.6204 86.6664L28.1907 83.4644Z" stroke="#A2874D" stroke-width="3.51584" stroke-miterlimit="22.9256"/>
<path d="M28.1908 83.4644L29.7615 86.6664L33.2731 87.1804L30.7317 89.6716L31.3322 93.1916L28.1908 91.5297L25.0498 93.1916L25.6498 89.6716L23.1094 87.1804L26.6204 86.6664L28.1908 83.4644Z" fill="url(#paint0_linear_19_114)"/>
<path d="M28.3698 0.0473633C28.7121 0.0473633 29.0783 0.0549388 29.4677 0.0699294C29.8521 0.0847303 30.2172 0.105565 30.5632 0.132312L31.2065 0.182065L27.7669 7.59522L27.4954 7.60648C21.9358 7.83729 16.938 10.2619 13.3345 14.043C9.74794 17.8063 7.54391 22.9155 7.54391 28.5441C7.54391 32.1041 8.42437 35.4542 9.9777 38.3861C11.5087 41.276 13.6932 43.7625 16.3325 45.6464L22.5381 32.2829H15.3192L18.791 24.8052H26.0108L36.9024 1.36281L37.2774 1.48774C42.9884 3.39077 47.8946 7.07436 51.3462 11.8855C54.7084 16.5718 56.6896 22.3258 56.6896 28.5441C56.6896 36.4132 53.5198 43.5373 48.3949 48.6943C43.2701 53.8512 36.19 57.0409 28.3698 57.0409C28.0279 57.0409 27.662 57.0333 27.2731 57.0182C26.8883 57.0034 26.5227 56.9825 26.1763 56.9559L25.5331 56.9063L28.9721 49.493L29.2436 49.4817C34.2276 49.275 38.7595 47.3058 42.2397 44.1773C45.631 41.1287 48.0237 36.9779 48.8639 32.2829H30.7331L19.8476 55.7286L19.4725 55.6037C13.7588 53.7024 8.85004 50.019 5.39641 45.2071C2.03235 40.5201 0.0499263 34.7643 0.0499268 28.5441C0.0499274 20.6751 3.21976 13.5508 8.34465 8.39391C13.4696 3.23699 20.5495 0.0473626 28.3698 0.0473633ZM48.8644 24.8052C48.3777 22.0847 47.3708 19.5489 45.9516 17.3059C44.4982 15.0091 42.6122 13.0161 40.4088 11.443L34.205 24.8052H48.8644Z" fill="url(#paint1_linear_19_114)"/>
<path d="M42.7609 83.4644L44.3317 86.6664L47.8432 87.1804L45.3018 89.6716L45.9023 93.1916L42.7609 91.5297L39.62 93.1916L40.22 89.6716L37.6796 87.1804L41.1906 86.6664L42.7609 83.4644Z" stroke="#A2874D" stroke-width="3.51584" stroke-miterlimit="22.9256"/>
<path d="M42.7611 83.4644L44.3317 86.6664L47.8434 87.1804L45.3018 89.6716L45.9025 93.1916L42.7611 91.5297L39.62 93.1916L40.22 89.6716L37.6796 87.1804L41.1908 86.6664L42.7611 83.4644Z" fill="url(#paint2_linear_19_114)"/>
<path d="M13.6205 83.4644L15.1912 86.6664L18.7028 87.1804L16.1614 89.6716L16.7619 93.1916L13.6205 91.5297L10.4795 93.1916L11.0795 89.6716L8.53903 87.1804L12.0502 86.6664L13.6205 83.4644Z" stroke="#A2874D" stroke-width="3.51584" stroke-miterlimit="22.9256"/>
<path d="M13.6205 83.4644L15.1912 86.6664L18.7028 87.1804L16.1614 89.6716L16.7619 93.1916L13.6205 91.5297L10.4795 93.1916L11.0795 89.6716L8.53903 87.1804L12.0502 86.6664L13.6205 83.4644Z" fill="url(#paint3_linear_19_114)"/>
<defs>
<linearGradient id="paint0_linear_19_114" x1="23.5917" y1="83.9281" x2="31.8438" y2="92.8643" gradientUnits="userSpaceOnUse">
<stop stop-color="#D7B56E"/>
<stop offset="0.21" stop-color="#FFE8B2"/>
<stop offset="0.5" stop-color="#D7B56E"/>
<stop offset="0.77" stop-color="#FFE8B1"/>
<stop offset="1" stop-color="#D7B56E"/>
</linearGradient>
<linearGradient id="paint1_linear_19_114" x1="1.492" y1="3.97567" x2="49.9731" y2="53.91" gradientUnits="userSpaceOnUse">
<stop stop-color="#D7B56E"/>
<stop offset="0.21" stop-color="#FFE8B2"/>
<stop offset="0.5" stop-color="#D7B56E"/>
<stop offset="0.77" stop-color="#FFE8B1"/>
<stop offset="1" stop-color="#D7B56E"/>
</linearGradient>
<linearGradient id="paint2_linear_19_114" x1="38.1621" y1="83.9281" x2="46.4141" y2="92.8643" gradientUnits="userSpaceOnUse">
<stop stop-color="#D7B56E"/>
<stop offset="0.21" stop-color="#FFE8B2"/>
<stop offset="0.5" stop-color="#D7B56E"/>
<stop offset="0.77" stop-color="#FFE8B1"/>
<stop offset="1" stop-color="#D7B56E"/>
</linearGradient>
<linearGradient id="paint3_linear_19_114" x1="9.02148" y1="83.9281" x2="17.2735" y2="92.8643" gradientUnits="userSpaceOnUse">
<stop stop-color="#D7B56E"/>
<stop offset="0.21" stop-color="#FFE8B2"/>
<stop offset="0.5" stop-color="#D7B56E"/>
<stop offset="0.77" stop-color="#FFE8B1"/>
<stop offset="1" stop-color="#D7B56E"/>
</linearGradient>
</defs>
</svg>
