<svg xmlns="http://www.w3.org/2000/svg" xmlns:xlink="http://www.w3.org/1999/xlink" width="0" height="0" style="position:absolute">
	
		<symbol id="arrow" viewBox="0 0 16 16">
			<path d="M2 8.667h9.724l-3.529 3.528.943.943L14.276 8 9.138 2.862l-.943.943 3.529 3.529H2v1.333z"></path>
		</symbol>
	
		<symbol id="arrowdown" viewBox="0 0 11 22">
			<path d="M10 15.607L5.5 20m0 0L1 15.607M5.5 20V1"></path>
		</symbol>
	
		<symbol id="catalog" viewBox="0 0 38 24">
			<path d="M20 5.04l12.56 6.8v.32L20 18.96v4.88l17.2-9.44V9.6L20 .16v4.88z"></path><path d="M0 10.16h34v4H0v-4z"></path>
		</symbol>
	
		<symbol id="doc" viewBox="0 0 512 512">
			<path d="M348.645 11.165v102.276h117.47zm125.677 119.343v304.565H114.605V0h216.973v121.975a8.534 8.534 0 0 0 8.533 8.533zM97.538 76.927v366.679a8.533 8.533 0 0 0 8.534 8.533H397.4V512H37.678V76.927z" fill-rule="evenodd" data-original="#000000"></path>
		</symbol>
	
		<symbol id="insta" viewBox="0 0 14 14">
			<path d="M6.998 4.666A2.34 2.34 0 0 0 4.664 7a2.34 2.34 0 0 0 2.334 2.334A2.34 2.34 0 0 0 9.332 7a2.34 2.34 0 0 0-2.334-2.334zM14 7c0-.967.009-1.925-.045-2.89-.055-1.12-.31-2.115-1.13-2.934C12.003.354 11.01.1 9.89.046 8.923-.008 7.965.001 7 .001 6.034 0 5.076-.01 4.11.046 2.99.1 1.995.356 1.176 1.176.354 1.996.1 2.99.046 4.11-.008 5.077.001 6.035.001 7c0 .965-.01 1.925.045 2.89.054 1.12.31 2.115 1.13 2.934.82.822 1.814 1.076 2.934 1.13.967.054 1.925.045 2.89.045.966 0 1.924.01 2.89-.045 1.12-.054 2.115-.31 2.934-1.13.822-.82 1.075-1.814 1.13-2.935.056-.964.045-1.922.045-2.889zm-7 3.592A3.587 3.587 0 0 1 3.406 7a3.587 3.587 0 0 1 3.591-3.592A3.587 3.587 0 0 1 10.59 7a3.587 3.587 0 0 1-3.592 3.592zM10.736 4.1a.838.838 0 1 1 0-1.678.838.838 0 1 1 0 1.678z" fill="#222"></path>
		</symbol>
	
		<symbol id="map" viewBox="0 0 20 20">
			<path d="M10 1.25a6.883 6.883 0 0 0-6.875 6.875A6.806 6.806 0 0 0 4.51 12.25s.188.247.218.283L10 18.75l5.274-6.22c.028-.034.216-.28.216-.28v-.002a6.803 6.803 0 0 0 1.385-4.123A6.883 6.883 0 0 0 10 1.25zm0 9.375a2.5 2.5 0 1 1 0-5 2.5 2.5 0 0 1 0 5z"></path>
		</symbol>
	
		<symbol id="services1" viewBox="0 0 31 35">
			<path d="M29.437 19.549h-1.964a12.408 12.408 0 0 0-2.758-6.545.512.512 0 1 0-.79.652 11.38 11.38 0 0 1 2.516 5.893H3.849c.665-5.64 5.477-10.03 11.297-10.03 2.624 0 5.09.867 7.13 2.509a.513.513 0 0 0 .642-.8 12.438 12.438 0 0 0-6.43-2.661v-.54c.675-.335 1.113-.918 1.113-1.595 0-1.062-1.078-1.894-2.455-1.894-1.378 0-2.456.832-2.456 1.894 0 .677.439 1.26 1.113 1.594v.54C8.033 9.19 3.44 13.783 2.818 19.549H.854a.855.855 0 0 0-.854.854v1.11c0 .47.383.854.854.854h.753c.022.044.048.087.077.13l.96 1.39c.307.448.95.785 1.493.785h2.446l1.075 2.066c.305.585.996 1.298 1.573 1.62l3.694 2.066h-.097a.855.855 0 0 0-.854.855v2.866c0 .472.383.855.854.855h9.479a.855.855 0 0 0 .854-.855V31.28a.855.855 0 0 0-.854-.855h-.565v-.192c0-.499.166-1.308.363-1.766l1.528-3.564c.033-.077.058-.154.077-.23h2.445c.543 0 1.185-.337 1.493-.784l.959-1.39c.03-.044.055-.087.078-.131h.752a.855.855 0 0 0 .854-.855v-1.109a.855.855 0 0 0-.854-.854zM15.463 8.497a12.57 12.57 0 0 0-.635 0v-.186a3.349 3.349 0 0 0 .635 0v.186zm-1.748-2.065c0-.512.754-.869 1.43-.869.677 0 1.43.357 1.43.869s-.753.869-1.43.869c-.676 0-1.43-.357-1.43-.87zm8.42 25.018v2.525H20.17V31.45h1.966zm-.973-3.388c-.25.583-.445 1.536-.445 2.17v.192h-2.29a.513.513 0 1 0 0 1.026h.718v2.525h-6.146V31.45h3.035a.513.513 0 0 0 0-1.026h-1.58a2.248 2.248 0 0 0-.76-.745l-3.962-2.216c-.406-.227-.95-.787-1.164-1.2l-.829-1.591h1.676l.274.542c.32.632 1.07 1.269 1.745 1.48l2.852.898a8.48 8.48 0 0 0 2.157.33h1.213c.738 0 1.611-.455 2.033-1.06l1.375-1.97c.052-.076.125-.15.208-.22h1.344l-1.454 3.39zm-10.598-3.39h9.402l-1.118 1.604c-.227.325-.795.622-1.191.622h-1.214a7.52 7.52 0 0 1-1.85-.285l-2.852-.896c-.404-.127-.946-.587-1.137-.965l-.04-.08zm16.24-1.367c-.119.173-.44.341-.65.341H4.138c-.21 0-.531-.168-.65-.34l-.647-.94h24.611l-.647.94zm2.462-1.963H1.026v-.768h28.24v.767zM6.355 8.133h1.872a.513.513 0 0 0 0-1.025H6.355a1.166 1.166 0 0 1 0-2.331h1.249a.513.513 0 0 0 0-1.026H6.355c-1.208 0-2.19.983-2.19 2.191 0 1.208.982 2.191 2.19 2.191zM9.362 1.025h1.653a1.364 1.364 0 0 1 0 2.726h-.996a.513.513 0 1 0 0 1.026h.996a2.39 2.39 0 0 0 2.387-2.389A2.39 2.39 0 0 0 11.017 0H9.361a.512.512 0 1 0 0 1.025z" fill="#fff"></path><path d="M19.384 8.169c.283 0 .513-.23.513-.513V6.64c0-.42.34-.762.76-.762h3.016c1.12 0 2.032-.912 2.032-2.033a2.035 2.035 0 0 0-2.032-2.033h-1.049a.513.513 0 1 0 0 1.025h1.049a1.008 1.008 0 0 1 0 2.016h-3.016c-.985 0-1.786.801-1.786 1.787v1.016c0 .284.23.513.513.513zM14.804 32.026h-.889a.513.513 0 1 0 0 1.026h.889a.513.513 0 1 0 0-1.026z" fill="#fff"></path>
		</symbol>
	
		<symbol id="services2" viewBox="0 0 29 35">
			<path d="M16.56 17.007a.513.513 0 0 0-.513.512c0 .853-.694 1.547-1.547 1.547a1.548 1.548 0 0 1-1.547-1.547.513.513 0 1 0-1.025 0 2.575 2.575 0 0 0 2.572 2.572 2.575 2.575 0 0 0 2.572-2.572.513.513 0 0 0-.513-.512zM12.248 15.065a2.484 2.484 0 0 0-2.48-2.481 2.484 2.484 0 0 0-2.482 2.48.513.513 0 1 0 1.026 0c0-.802.652-1.455 1.455-1.455s1.456.653 1.456 1.456a.513.513 0 0 0 1.025 0zM19.233 12.584a2.484 2.484 0 0 0-2.481 2.48.513.513 0 1 0 1.025 0c0-.802.653-1.455 1.456-1.455.802 0 1.456.653 1.456 1.456a.513.513 0 1 0 1.025 0 2.484 2.484 0 0 0-2.481-2.481z" fill="#fff"></path><path d="M24.482 10.071a10.084 10.084 0 0 0-4.247-6.358c-.224-1.268-1.092-2.245-2.191-2.903a.513.513 0 1 0-.527.88c.396.237.596.448.67.498.578.427 1.047 1.28 1.07 1.983.02.596-.147 1.263-.61 1.598a.477.477 0 0 0-.013.01c-.39.3-.673.709-.673 1.197v.01c.004.408.18.64.376.964a12.114 12.114 0 0 1-2.228-1.192c-.762-.527-1.664.075-1.941.788-.234.592.015.985.287 1.433-1.218-.51-2.236-1.115-2.988-1.784-.956-.85-1.461-1.787-1.461-2.709 0-.592-.001-.517.003-.618.07-1.454 1.712-3.161 5.455-2.805A.512.512 0 1 0 15.56.042C15.17.005 14.819 0 14.555 0l-.453.002c-2.639 0-4.817 1.554-5.092 3.542a10.185 10.185 0 0 0-3.348 3.484 10.08 10.08 0 0 0-1.154 3.044 3.806 3.806 0 0 0-3.51 3.79 3.806 3.806 0 0 0 3.508 3.789 10.13 10.13 0 0 0 3.411 5.722 8.452 8.452 0 0 0-3.297 6.714v1.003a.513.513 0 1 0 1.025 0v-1.003a7.43 7.43 0 0 1 1.896-4.97v.744a6.98 6.98 0 0 0 6.973 6.973 6.98 6.98 0 0 0 6.973-6.973v-.743c.545.61.99 1.308 1.312 2.074v.001c.387.917.583 1.89.583 2.894v3.888H5.645v-.493a.513.513 0 0 0-1.025 0v1.005c0 .283.23.513.513.513h18.762c.283 0 .512-.23.512-.513v-4.4c0-1.141-.223-2.249-.662-3.292l-.001-.002a8.457 8.457 0 0 0-2.62-3.409l-.03-.023a.147.147 0 0 0-.004-.004 10.128 10.128 0 0 0 3.392-5.705 3.806 3.806 0 0 0 3.52-3.79 3.806 3.806 0 0 0-3.52-3.79zM4.35 16.601a2.78 2.78 0 0 1-2.326-2.74 2.78 2.78 0 0 1 2.326-2.74c-.058.599-.084 4.604 0 5.48zm16.111 9.26a5.954 5.954 0 0 1-5.947 5.947 5.954 5.954 0 0 1-5.948-5.948v-1.692c.067-.052.135-.101.203-.15.285.192.581.37.886.534v1.309a4.864 4.864 0 0 0 4.859 4.858c2.679 0 4.858-2.18 4.858-4.858v-1.33c.299-.161.588-.337.867-.527.075.053.15.107.222.164v1.692zm-9.78 0v-.83c1.321.528 2.56.718 3.883.718 1.337 0 2.614-.261 3.783-.734v.845a3.838 3.838 0 0 1-3.833 3.834 3.838 3.838 0 0 1-3.834-3.834zm12.868-8.812c-.706 4.478-4.598 7.674-9.049 7.674-3.34 0-5.3-1.746-5.54-1.828a9.104 9.104 0 0 1-3.52-5.846c-.144-.919-.112-1.328-.112-4.954A9.159 9.159 0 0 1 8.994 4.8c.25 2.879 3.754 4.767 6.503 5.655a.514.514 0 0 0 .596-.754l-.938-1.544a.387.387 0 0 1-.036-.076c-.042-.1.03-.215.034-.22a.938.938 0 0 1 .25-.256c.051-.029.1-.022.123-.003.232.16.478.316.735.466.391.227.81.443 1.257.644.576.26 1.197.498 1.86.713a.513.513 0 0 0 .596-.754l-.938-1.545c-.179-.294.196-.49.42-.698.416-.385.655-.902.763-1.457a9.066 9.066 0 0 1 3.44 7.125c.001 3.802.03 4.056-.11 4.954zm1.09-.446c.084-.878.058-4.876 0-5.483a2.78 2.78 0 0 1 2.337 2.741 2.781 2.781 0 0 1-2.338 2.742z" fill="#fff"></path>
		</symbol>
	
		<symbol id="services3" viewBox="0 0 31 33">
			<path d="M3.309 3.535a.547.547 0 0 0-.774 0l-1.64 1.64a.547.547 0 0 0 0 .774l5.082 5.082H4.563a.547.547 0 0 0-.547.547v2.188a.547.547 0 0 0 .547.546v2.735a4.928 4.928 0 0 0 4.921 4.922h3.055l-1.94 1.94a4.917 4.917 0 1 0 2.005 2.823l3.778-3.777a2.722 2.722 0 0 0 1.518 0l4.908 4.908a3.832 3.832 0 1 0 2.414-2.414l-3.48-3.48h3.055a4.928 4.928 0 0 0 4.922-4.922v-2.735a.547.547 0 0 0 .547-.546v-2.188a.547.547 0 0 0-.547-.547h-.263c-1.28-1.92-.846-4.244-.842-4.267a.547.547 0 0 0-.403-.638c-3.888-.972-3.96-4.255-3.961-4.392a.547.547 0 0 0-.739-.512C19.472 2.737 15.853.221 15.818.196a.546.546 0 0 0-.45-.085L13.18.656a.546.546 0 0 0-.396.67l2.553 9.704h-4.532L3.309 3.535zm11.746 15.028L4.242 7.75l.867-.867 10.94 10.939a2.749 2.749 0 0 0-.994.74zM2.922 4.695L4.336 6.11l-.867.868-1.414-1.414.867-.868zm2.187 7.43H7.07l1.094 1.094H5.11v-1.094zm4.375 8.75a3.832 3.832 0 0 1-3.828-3.828v-2.735h3.602l5.256 5.257c-.049.17-.082.345-.097.522l-.784.784H9.484zm-1.64 10.938a3.828 3.828 0 1 1 0-7.657 3.828 3.828 0 0 1 0 7.657zm4.319-6.187a4.944 4.944 0 0 0-.73-1.005l3.201-3.201c.169.383.422.723.741.994l-3.212 3.212zm3.337-5.298a1.64 1.64 0 1 1 3.28 0 1.64 1.64 0 0 1-3.28 0zm13.672 8.75a2.735 2.735 0 1 1-5.47 0 2.735 2.735 0 0 1 5.47 0zm-5.838-2.236l-4.428-4.428c.32-.27.573-.61.741-.994l4.554 4.554a3.861 3.861 0 0 0-.867.867zm5.291-9.795a3.832 3.832 0 0 1-3.828 3.828h-4.149l-.784-.784a2.738 2.738 0 0 0-2.486-2.486l-3.292-3.293h14.539v2.735zm-.436-6.016H20.55l6.893-3.446c-.02.872.094 2.176.745 3.446zm-1.52-4.281l-7.098 3.549 3.887-6.997c.084.25.186.492.303.728.445.89 1.297 2.001 2.907 2.72zm-4.087-4.124l-4.153 7.476-2.088-8.352c1.313.636 3.611 1.421 6.241.876zm-8.6-1.042l1.12-.28 2.432 9.727h-1.066l-2.486-9.447zm15.19 10.541v1.094h-16.18l-1.094-1.094h17.274z" fill="#fff"></path><path d="M26.438 30.719a1.641 1.641 0 1 0 0-3.283 1.641 1.641 0 0 0 0 3.283zm0-2.188a.546.546 0 1 1 0 1.093.546.546 0 0 1 0-1.093zM7.844 25.25a2.735 2.735 0 1 0 0 5.47 2.735 2.735 0 0 0 0-5.47zm0 4.375a1.64 1.64 0 1 1 0-3.28 1.64 1.64 0 0 1 0 3.28z" fill="#fff"></path>
		</symbol>
	
		<symbol id="services4" viewBox="0 0 33 33">
			<path d="M1.917 16.5A14.581 14.581 0 0 1 25.53 5.052h-2.218a.73.73 0 0 0 0 1.459h4.125a.73.73 0 0 0 .729-.73V1.656a.73.73 0 0 0-1.459 0v2.47A16.042 16.042 0 0 0 5.157 27.843a.729.729 0 0 0 1.031-1.03A14.488 14.488 0 0 1 1.917 16.5zM10.127 29.622a14.716 14.716 0 0 1-1.217-.665.73.73 0 1 0-.76 1.245c.434.264.884.51 1.34.732a.73.73 0 0 0 .637-1.312zM29.628 10.14a.732.732 0 0 0 .974.339.728.728 0 0 0 .339-.974c-.22-.454-.466-.905-.73-1.34a.728.728 0 0 0-1.332.206.73.73 0 0 0 .086.552c.24.396.463.805.663 1.218zM18.23 30.981c-.46.055-.926.087-1.385.099a.729.729 0 0 0 .017 1.457h.018a16.271 16.271 0 0 0 1.521-.108.729.729 0 0 0-.17-1.448h-.001zM14.08 30.882c-.454-.075-.91-.174-1.355-.294a.729.729 0 1 0-.377 1.41c.49.13.993.24 1.492.323a.728.728 0 1 0 .24-1.439zM31.826 16.149a.73.73 0 0 0-.747.71c-.012.462-.046.927-.1 1.385a.73.73 0 0 0 1.448.173c.06-.503.097-1.014.11-1.521a.73.73 0 0 0-.711-.747zM29.588 24.489a.73.73 0 0 0-1.013.193c-.26.382-.54.755-.834 1.11a.73.73 0 1 0 1.123.93c.323-.39.632-.801.917-1.22a.728.728 0 0 0-.193-1.013zM30.592 12.738c.119.444.217.9.293 1.356a.73.73 0 1 0 1.438-.239 16.015 16.015 0 0 0-.321-1.492.73.73 0 1 0-1.41.375zM25.78 27.751c-.357.295-.73.575-1.11.833a.73.73 0 0 0 .818 1.207c.418-.283.828-.591 1.22-.915a.73.73 0 0 0-.928-1.125zM31.305 20.48a.73.73 0 0 0-.915.473c-.14.437-.303.874-.485 1.299a.729.729 0 1 0 1.34.575c.2-.468.38-.95.533-1.431a.73.73 0 0 0-.473-.916zM22.238 29.91c-.42.181-.858.344-1.3.485a.728.728 0 1 0 .443 1.39 15.98 15.98 0 0 0 1.43-.533.73.73 0 1 0-.573-1.341z" fill="#fff"></path><path d="M10.333 15.01c0-1.195-.785-2.152-2.002-2.44a3.035 3.035 0 0 0-3.42 1.61.73.73 0 1 0 1.304.652 1.565 1.565 0 0 1 1.781-.842c.207.049.88.266.88 1.02 0 .761-.88 1.348-1.81 1.969-1.046.699-2.233 1.49-2.233 2.802a.73.73 0 0 0 .73.73h4.041a.73.73 0 0 0 0-1.459H6.715c.306-.29.738-.578 1.161-.86 1.152-.77 2.457-1.641 2.457-3.181zM17.23 17.412a.73.73 0 0 0-.73-.73h-.592V12.81a.73.73 0 0 0-1.299-.457l-3.691 4.604a.73.73 0 0 0 .569 1.185h2.962v2.05a.73.73 0 1 0 1.459 0v-2.05h.592a.73.73 0 0 0 .73-.73zm-2.78-.73h-1.443l1.442-1.799v1.8zM20.961 11.684a.727.727 0 0 0-.858.572l-1.64 8.203a.729.729 0 1 0 1.43.286l1.64-8.203a.73.73 0 0 0-.572-.858zM24.703 20.511a.73.73 0 0 0 .673-.449l2.734-6.563a.73.73 0 0 0-.672-1.01h-3.692a.73.73 0 0 0 0 1.46h2.598L24.03 19.5a.73.73 0 0 0 .673 1.01z" fill="#fff"></path>
		</symbol>
	
		<symbol id="services5" viewBox="0 0 35 25">
			<path d="M34.723 7.14A24.198 24.198 0 0 0 17.5.006 24.198 24.198 0 0 0 .277 7.14a.946.946 0 0 0 1.337 1.337A22.32 22.32 0 0 1 17.5 1.897c6.001 0 11.643 2.337 15.886 6.58a.942.942 0 0 0 1.337 0 .946.946 0 0 0 0-1.337z" fill="#fff"></path><path d="M17.5 5.261c-5.102 0-9.9 1.987-13.507 5.595a.946.946 0 0 0 1.337 1.337 17.098 17.098 0 0 1 12.17-5.04c4.597 0 8.92 1.79 12.17 5.04a.946.946 0 0 0 1.337-1.337A18.977 18.977 0 0 0 17.5 5.261z" fill="#fff"></path><path d="M17.5 10.412c-3.727 0-7.23 1.451-9.866 4.086a.946.946 0 0 0 1.337 1.337 11.982 11.982 0 0 1 8.529-3.533c3.221 0 6.25 1.255 8.528 3.533a.942.942 0 0 0 1.337 0 .945.945 0 0 0 0-1.337 13.86 13.86 0 0 0-9.865-4.086z" fill="#fff"></path><path d="M17.5 15.614c-2.337 0-4.534.91-6.187 2.563a.945.945 0 1 0 1.337 1.337 6.813 6.813 0 0 1 4.85-2.009c1.832 0 3.554.714 4.85 2.01a.942.942 0 0 0 1.336 0 .945.945 0 0 0 0-1.338 8.691 8.691 0 0 0-6.186-2.563zM17.5 21.211a1.89 1.89 0 1 0 0 3.782 1.89 1.89 0 0 0 0-3.782z" fill="#fff"></path>
		</symbol>
	
		<symbol id="services6" viewBox="0 0 33 33">
			<path d="M16.5.64C7.75.64.64 7.75.64 16.5S7.75 32.36 16.5 32.36s15.86-7.11 15.86-15.86S25.25.64 16.5.64zm0 30.079c-7.848 0-14.219-6.371-14.219-14.219 0-7.848 6.371-14.219 14.219-14.219 7.848 0 14.219 6.371 14.219 14.219 0 7.848-6.371 14.219-14.219 14.219z" fill="#fff"></path><path d="M17.047 10.21h-3.281a.806.806 0 0 0-.82.821v12.305c0 .465.355.82.82.82.464 0 .82-.355.82-.82v-3.828h2.46a4.644 4.644 0 0 0 4.65-4.649 4.645 4.645 0 0 0-4.65-4.648zm0 7.657h-2.461v-6.015h2.46a3 3 0 0 1 3.009 3.007 3 3 0 0 1-3.008 3.008z" fill="#fff"></path>
		</symbol>
	
		<symbol id="telegram" viewBox="0 0 17 14">
			<path d="M15.501.078L.343 5.884c-.492.158-.438.844.055 1.002l3.83 1.161 1.533 4.645c.11.37.602.475.875.21l2.244-2.005 4.268 3.008a.582.582 0 0 0 .876-.316l2.955-12.244C17.143.448 16.322-.238 15.5.078zM6.636 8.945l-.492 2.744-1.095-3.8L15.72 1.134l-9.084 7.81z" fill="#222"></path>
		</symbol>
	
		<symbol id="trash" viewBox="0 0 19 19">
			<path d="M2.98 3.97c0 5.443.593 14.351 2.969 14.351h4.454M1 3.969h5.444m3.959 0h-3.96m0 0C6.94 2.815 6.94 1 8.919 1h1.485" fill="transparent"></path><path d="M16.048 3.97c0 5.443-.594 14.351-2.97 14.351H8.625m9.402-14.352h-5.443m-3.96 0h3.96m0 0C12.089 2.815 12.089 1 10.109 1H8.625" fill="transparent"></path>
		</symbol>
	
		<symbol id="triangle" viewBox="0 0 6 5">
			<path d="M3 0l2.598 4.5H.402L3 0z"></path>
		</symbol>
	
		<symbol id="vk" viewBox="0 0 16 10">
			<path fill-rule="evenodd" clip-rule="evenodd" d="M15.633.677c.111-.39 0-.677-.53-.677h-1.75c-.445 0-.65.248-.761.521 0 0-.89 2.283-2.152 3.766-.407.43-.593.566-.816.566-.11 0-.272-.136-.272-.526V.677c0-.468-.129-.677-.5-.677h-2.75a.432.432 0 0 0-.446.423c0 .445.63.547.695 1.796v2.713c0 .594-.102.702-.324.702-.593 0-2.037-2.293-2.893-4.918C2.966.206 2.798 0 2.351 0H.6C.1 0 0 .248 0 .521 0 1.01.594 3.43 2.763 6.63 4.21 8.815 6.247 10 8.102 10c1.113 0 1.25-.263 1.25-.716V7.632c0-.527.106-.632.458-.632.26 0 .705.137 1.743 1.19C12.74 9.44 12.935 10 13.603 10h1.75c.5 0 .75-.263.607-.783-.158-.517-.725-1.268-1.477-2.158-.408-.508-1.02-1.054-1.205-1.327-.26-.352-.186-.508 0-.82 0 0 2.132-3.161 2.355-4.235z" fill="#222"></path>
		</symbol>
	
		<symbol id="whatsapp" viewBox="0 0 15 14">
			<path d="M12.989 3.237C10.889 0 6.6-.963 3.276 1.05.04 3.062-1.01 7.437 1.09 10.675l.175.262-.7 2.626 2.625-.7.262.175C4.59 13.65 5.814 14 7.04 14c1.312 0 2.625-.35 3.762-1.05 3.238-2.1 4.2-6.388 2.188-9.713zM11.15 9.975c-.35.525-.787.875-1.4.963-.35 0-.787.175-2.537-.526-1.488-.7-2.713-1.837-3.588-3.15-.525-.612-.787-1.4-.875-2.187 0-.7.263-1.313.7-1.75.175-.175.35-.263.525-.263h.438c.175 0 .35 0 .437.35.175.438.613 1.488.613 1.575a.266.266 0 0 1 0 .35c.087.175 0 .35-.088.438-.087.087-.175.262-.262.35-.175.087-.263.262-.175.437.35.525.787 1.05 1.225 1.488.525.437 1.05.787 1.662 1.05.175.087.35.087.438-.088.087-.175.525-.612.7-.787.175-.175.262-.175.437-.088l1.4.7c.175.088.35.175.438.263.087.262.087.612-.088.875z"></path>
		</symbol>
	
</svg>
